<svg id="Handshake" xmlns="http://www.w3.org/2000/svg" width="39.241" height="17.919" viewBox="0 0 39.241 17.919">
  <path id="Path_40750" data-name="Path 40750" d="M17.771,14.022c2.647,1.39,2.936,2.747,2.143,3.684-1,1.187-4.151.648-5.695-.068C11,16.145,8.1,13.7,9.391,12.254c.779-.876,4.8-.113,8.38,1.768M29.257,3.94l-4.725-.891a5.292,5.292,0,0,0-5.036,1.4l-2.843,2.5a4.436,4.436,0,0,0,5.353.315l1.6-.947a1.974,1.974,0,0,1,2.363.007l7.693,5.662,2.973-.832L32.689,3.223Z" transform="translate(-1.988 -1.105)" fill="#c7c9cb"/>
  <path id="Path_40751" data-name="Path 40751" d="M46.978,13.264a.817.817,0,0,0,.893-.708.917.917,0,0,0-1.785,0,.817.817,0,0,0,.893.708" transform="translate(-10.09 -4.506)" fill="#040504"/>
  <path id="Path_40752" data-name="Path 40752" d="M3.989,13.264a.817.817,0,0,0,.893-.708.817.817,0,0,0-.893-.709.817.817,0,0,0-.893.709.817.817,0,0,0,.893.708" transform="translate(-0.678 -4.506)" fill="#040504"/>
  <path id="Path_40753" data-name="Path 40753" d="M39.2,9.939a.839.839,0,0,0-.988-.392l-2.625.693-4.16-8.35c-.008-.015-.023-.026-.032-.041l-.187-.378,1-.265A.6.6,0,0,0,32.7.422a.842.842,0,0,0-.989-.391L29.935.5a.749.749,0,0,0-.46.325.5.5,0,0,0-.019.488l.187.38-2.384.5-4.509-.85a6.559,6.559,0,0,0-3.726.242,5.379,5.379,0,0,0-4.6-.081L12.144,2.639,10.982,2.2l.085-.137a.486.486,0,0,0,.026-.078l.239-.4a.571.571,0,0,0-.37-.822L9.176.088A.881.881,0,0,0,8.134.379a.571.571,0,0,0,.368.827l1.087.406L9.3,2.106,4.222,10.245,1.106,9.114a.874.874,0,0,0-1.035.307.574.574,0,0,0,.385.821L4.215,11.6a.9.9,0,0,0,1-.245l.227-.3.958.4a1.768,1.768,0,0,0-.014,1.011c.478,1.75,3.237,3.573,5.456,4.6a10.359,10.359,0,0,0,3.951.846,3.966,3.966,0,0,0,2.517-.7,6.263,6.263,0,0,0,2.894.675,7.64,7.64,0,0,0,1.5-.152,45.438,45.438,0,0,0,6.238-2.093c2.085-.906,3.265-1.979,3.507-3.191a2.315,2.315,0,0,0-.059-1.117l1.883-.527.216.419a.805.805,0,0,0,.723.386,1,1,0,0,0,.248-.032l3.255-.86a.6.6,0,0,0,.494-.784M17.279,16.261c-.638.754-3.271.384-4.652-.258-2.482-1.152-4.422-2.713-4.718-3.8a.682.682,0,0,1,.13-.693c.437-.34,3.73.043,7.314,1.925,1.579.829,2.041,1.52,2.15,1.954a.935.935,0,0,1-.224.868M30.9,12.274c-.167.8-1.105,1.587-2.713,2.285a44.665,44.665,0,0,1-5.911,1.988,4.629,4.629,0,0,1-3.245-.434,1.879,1.879,0,0,0,.008-.963c-.244-.966-1.192-1.889-2.82-2.744-3.185-1.673-7.208-2.72-8.919-1.97L6.148,9.953l4.141-6.642,1.568.594a.961.961,0,0,0,.337.06.936.936,0,0,0,.414-.094l2.68-1.33A3.054,3.054,0,0,1,17.517,2.4a4.249,4.249,0,0,0-.621.556l-2.81,2.468a.532.532,0,0,0,.029.854,5.333,5.333,0,0,0,6.4.354l1.564-.929a.691.691,0,0,0,.078-.053,1,1,0,0,1,1.285.019L30.3,10.713a1.807,1.807,0,0,1,.6,1.56m.96-2.1-7.334-5.4a3.02,3.02,0,0,0-1.78-.584,2.682,2.682,0,0,0-1.634.547l-1.557.925c-.02.012-.043.027-.061.04a3.42,3.42,0,0,1-3.709.086L18.088,3.76A.659.659,0,0,0,18.15,3.7a4.419,4.419,0,0,1,4.214-1.152l4.725.891a.97.97,0,0,0,.38,0l2.76-.576,3.391,6.82Z" transform="translate(0 0)" fill="#040504"/>
</svg>
