<svg xmlns="http://www.w3.org/2000/svg" width="40" height="40" viewBox="0 0 40 40">
  <path id="ic_close" d="M14,25.35H34v-3H14ZM24,44a19.352,19.352,0,0,1-7.75-1.575A20.15,20.15,0,0,1,5.575,31.75a19.978,19.978,0,0,1,0-15.55,19.988,19.988,0,0,1,4.3-6.35A20.5,20.5,0,0,1,16.25,5.575a19.978,19.978,0,0,1,15.55,0A19.969,19.969,0,0,1,42.425,16.2a19.978,19.978,0,0,1,0,15.55,20.5,20.5,0,0,1-4.275,6.375,19.988,19.988,0,0,1-6.35,4.3A19.475,19.475,0,0,1,24,44Z" transform="translate(-4 -4)" fill="#cbcbcb"/>
</svg>
