<svg xmlns="http://www.w3.org/2000/svg" width="21.42" height="19.278" viewBox="0 0 21.42 19.278">
  <path id="Icon_material-domain" data-name="Icon material-domain" d="M13.71,8.784V4.5H3V23.778H24.42V8.784ZM7.284,21.636H5.142V19.494H7.284Zm0-4.284H5.142V15.21H7.284Zm0-4.284H5.142V10.926H7.284Zm0-4.284H5.142V6.642H7.284Zm4.284,12.852H9.426V19.494h2.142Zm0-4.284H9.426V15.21h2.142Zm0-4.284H9.426V10.926h2.142Zm0-4.284H9.426V6.642h2.142Zm10.71,12.852H13.71V19.494h2.142V17.352H13.71V15.21h2.142V13.068H13.71V10.926h8.568Zm-2.142-8.568H17.994V15.21h2.142Zm0,4.284H17.994v2.142h2.142Z" transform="translate(-3 -4.5)" fill="#707070"/>
</svg>
