<svg xmlns="http://www.w3.org/2000/svg" width="31.791" height="31.791" viewBox="0 0 31.791 31.791">
  <path id="Twitter" d="M74.342,31.791h0a15.9,15.9,0,1,1,15.9-15.9,15.9,15.9,0,0,1-15.9,15.9M65.873,21.217a9.883,9.883,0,0,0,15.2-8.776,7.047,7.047,0,0,0,1.734-1.8,6.937,6.937,0,0,1-2,.547,3.48,3.48,0,0,0,1.527-1.922,6.984,6.984,0,0,1-2.206.844,3.477,3.477,0,0,0-5.922,3.169,9.861,9.861,0,0,1-7.162-3.631,3.479,3.479,0,0,0,1.076,4.64,3.454,3.454,0,0,1-1.575-.435,3.481,3.481,0,0,0,2.788,3.452,3.494,3.494,0,0,1-1.569.059,3.478,3.478,0,0,0,3.247,2.413,6.982,6.982,0,0,1-5.145,1.439" transform="translate(-58.447)" fill="#767676"/>
</svg>
