<svg id="Youtube" xmlns="http://www.w3.org/2000/svg" width="31.791" height="31.791" viewBox="0 0 31.791 31.791">
  <path id="Path_40654" data-name="Path 40654" d="M191.236,0h0a15.9,15.9,0,1,0,15.895,15.9A15.9,15.9,0,0,0,191.236,0m11.157,21.538a2.927,2.927,0,0,1-2.059,2.072c-1.816.489-9.1.489-9.1.489s-7.283,0-9.1-.489a2.928,2.928,0,0,1-2.059-2.072,30.736,30.736,0,0,1-.486-5.642,30.724,30.724,0,0,1,.486-5.641,2.926,2.926,0,0,1,2.059-2.072c1.817-.49,9.1-.49,9.1-.49s7.283,0,9.1.49a2.924,2.924,0,0,1,2.059,2.072,30.672,30.672,0,0,1,.487,5.641,30.684,30.684,0,0,1-.487,5.642" transform="translate(-175.34)" fill="#767676"/>
  <path id="Path_40656" data-name="Path 40656" d="M191.519,21.81V14.885l6.087,3.462Z" transform="translate(-178.005 -2.452)" fill="#767676"/>
</svg>
