<svg width="96" height="96" viewBox="0 0 96 96" fill="none" xmlns="http://www.w3.org/2000/svg">
<g clip-path="url(#clip0_2_40)">
<path d="M48 0C21.4903 0 0 21.4903 0 48C0 74.5097 21.4903 96 48 96C74.5097 96 96 74.5097 96 48C96 21.4903 74.5097 0 48 0ZM60.6731 28.7677C60.6731 28.7677 55.7617 28.3807 53.8269 29.0951C50.6289 30.2764 50.5528 33.039 50.5528 35.6734V41.0535H60.3308L58.902 51.345H50.5528V76.7499H39.5091V51.345H30.327V41.0535H39.5096V32.325C39.5096 23.0827 46.6238 19.7342 50.8652 19.3324C55.1066 18.9306 60.6731 20.136 60.6731 20.136V28.7677Z" fill="#767676"/>
</g>
<defs>
<clipPath id="clip0_2_40">
<rect width="96" height="96" fill="white"/>
</clipPath>
</defs>
</svg>
