<svg width="96" height="96" viewBox="0 0 96 96" fill="none" xmlns="http://www.w3.org/2000/svg">
<g clip-path="url(#clip0_2_38)">
<path fill-rule="evenodd" clip-rule="evenodd" d="M48 0C74.4919 0 96 21.5081 96 48C96 74.4919 74.4919 96 48 96C21.5081 96 0 74.4919 0 48C0 21.5081 21.5081 0 48 0ZM55.668 64.8506C59.0286 64.8506 61.7739 67.5958 61.7739 70.9566C61.7739 74.3171 59.0286 77.0625 55.668 77.0625C52.3072 77.0625 49.5621 74.3171 49.5621 70.9566V64.8506H55.668ZM34.2261 55.668C34.2261 52.3072 36.9714 49.5621 40.332 49.5621C43.6928 49.5621 46.4379 52.3072 46.4379 55.668V70.9566C46.4379 74.3171 43.6928 77.0625 40.332 77.0625C36.9714 77.0625 34.2261 74.3171 34.2261 70.9566V55.668ZM31.1494 55.668C31.1494 59.0286 28.4042 61.7739 25.0434 61.7739C21.6829 61.7739 18.9375 59.0286 18.9375 55.668C18.9375 52.3072 21.6829 49.5621 25.0434 49.5621H31.1494V55.668ZM70.9566 61.7739C74.3173 61.7737 77.0625 59.0286 77.0625 55.668C77.0625 52.3072 74.3171 49.5621 70.9566 49.5621H55.668C52.3072 49.5621 49.5621 52.3072 49.5621 55.668C49.5621 59.0286 52.3072 61.7739 55.668 61.7739H70.9566ZM70.9566 46.4379C74.3173 46.4379 77.0625 43.6926 77.0625 40.332C77.0625 36.9714 74.3171 34.2261 70.9566 34.2261C67.5958 34.2261 64.8506 36.9714 64.8506 40.332V46.4379H70.9566ZM61.7739 40.332C61.7739 43.6928 59.0286 46.4379 55.668 46.4379C52.3072 46.4379 49.5621 43.6928 49.5621 40.332V25.0434C49.5621 21.6829 52.3072 18.9375 55.668 18.9375C59.0286 18.9375 61.7739 21.6829 61.7739 25.0434V40.332ZM40.332 46.4379C43.6928 46.4379 46.4379 43.6926 46.4379 40.332C46.4379 36.9714 43.6928 34.2261 40.332 34.2261H25.0434C21.6829 34.2261 18.9375 36.9714 18.9375 40.332C18.9375 43.6928 21.6829 46.4379 25.0434 46.4379H40.332ZM46.4379 31.1494V25.0434C46.4379 21.6829 43.6928 18.9375 40.332 18.9375C36.9714 18.9375 34.2261 21.6829 34.2261 25.0434C34.2261 28.4042 36.9714 31.1494 40.332 31.1494H46.4379Z" fill="#767676"/>
</g>
<defs>
<clipPath id="clip0_2_38">
<rect width="96" height="96" fill="white"/>
</clipPath>
</defs>
</svg>
