<svg width="96" height="96" viewBox="0 0 96 96" fill="none" xmlns="http://www.w3.org/2000/svg">
<g clip-path="url(#clip0_2_29)">
<path fill-rule="evenodd" clip-rule="evenodd" d="M48 0C74.4919 0 96 21.5081 96 48C96 74.4919 74.4919 96 48 96C21.5081 96 0 74.4919 0 48C0 21.5081 21.5081 0 48 0ZM32.9931 74.9758V37.4906H20.5311V74.9758H32.9931ZM77.9218 74.9758V53.4797C77.9218 41.9655 71.7743 36.6092 63.5764 36.6092C56.9661 36.6092 54.0051 40.2446 52.3472 42.798V37.4906H39.8884C40.0536 41.0076 39.8884 74.9758 39.8884 74.9758H52.347V54.0414C52.347 52.9209 52.4276 51.8008 52.7578 51C53.6569 48.7622 55.7085 46.4439 59.1506 46.4439C63.657 46.4439 65.4624 49.8827 65.4624 54.9197V74.9758H77.9218ZM26.8462 19.4156C22.5825 19.4156 19.7968 22.2188 19.7968 25.8928C19.7968 29.4894 22.4978 32.3698 26.6813 32.3698H26.7617C31.107 32.3698 33.8117 29.4894 33.8117 25.8928C33.7311 22.2188 31.1072 19.4156 26.8462 19.4156Z" fill="#767676"/>
</g>
<defs>
<clipPath id="clip0_2_29">
<rect width="96" height="96" fill="white"/>
</clipPath>
</defs>
</svg>
