<svg id="Instagram" xmlns="http://www.w3.org/2000/svg" width="31.791" height="31.791" viewBox="0 0 31.791 31.791">
  <path id="Path_40651" data-name="Path 40651" d="M135.351,15.552a2.905,2.905,0,1,0,2.905,2.905,2.9,2.9,0,0,0-2.905-2.905" transform="translate(-119.456 -2.561)" fill="#767676"/>
  <path id="Path_40652" data-name="Path 40652" d="M141.309,12.481a2.88,2.88,0,0,0-1.654-1.654,4.813,4.813,0,0,0-1.619-.3c-.919-.042-1.194-.051-3.521-.051s-2.6.009-3.521.051a4.808,4.808,0,0,0-1.619.3,2.881,2.881,0,0,0-1.654,1.654,4.829,4.829,0,0,0-.3,1.618c-.042.92-.05,1.2-.05,3.522s.008,2.6.05,3.521a4.83,4.83,0,0,0,.3,1.619,2.88,2.88,0,0,0,1.654,1.654,4.814,4.814,0,0,0,1.619.3c.919.042,1.194.051,3.521.051s2.6-.009,3.521-.051a4.819,4.819,0,0,0,1.619-.3,2.88,2.88,0,0,0,1.654-1.654,4.814,4.814,0,0,0,.3-1.619c.043-.919.051-1.194.051-3.521s-.008-2.6-.051-3.522a4.812,4.812,0,0,0-.3-1.618M134.515,22.1a4.475,4.475,0,1,1,4.475-4.475,4.475,4.475,0,0,1-4.475,4.475m4.652-8.082a1.046,1.046,0,1,1,1.046-1.046,1.046,1.046,0,0,1-1.046,1.046" transform="translate(-118.62 -1.726)" fill="#767676"/>
  <path id="Path_40653" data-name="Path 40653" d="M132.789,0a15.9,15.9,0,1,0,15.9,15.9A15.9,15.9,0,0,0,132.789,0m8.663,19.489a6.4,6.4,0,0,1-.405,2.116,4.462,4.462,0,0,1-2.549,2.549,6.424,6.424,0,0,1-2.116.405c-.93.042-1.226.052-3.593.052s-2.664-.01-3.593-.052a6.425,6.425,0,0,1-2.116-.405,4.457,4.457,0,0,1-2.548-2.549,6.381,6.381,0,0,1-.405-2.116c-.043-.93-.053-1.226-.053-3.593s.01-2.664.053-3.593a6.381,6.381,0,0,1,.405-2.116,4.457,4.457,0,0,1,2.548-2.549,6.4,6.4,0,0,1,2.116-.405c.93-.042,1.226-.053,3.593-.053s2.664.011,3.593.053a6.4,6.4,0,0,1,2.116.405,4.462,4.462,0,0,1,2.549,2.549,6.4,6.4,0,0,1,.405,2.116c.043.93.053,1.226.053,3.593s-.01,2.664-.053,3.593" transform="translate(-116.894)" fill="#767676"/>
</svg>
