<svg xmlns="http://www.w3.org/2000/svg" width="31.791" height="31.791" viewBox="0 0 31.791 31.791">
  <path id="LinkedIn" d="M249.683,31.791h0a15.9,15.9,0,0,1-15.9-15.9h0a15.9,15.9,0,0,1,31.791,0h0a15.9,15.9,0,0,1-15.895,15.9m-7.208-8.811h3.29V12.352h-3.29Zm1.63-12.02A1.961,1.961,0,1,0,242.159,9,1.954,1.954,0,0,0,244.1,10.96m6.919,6.441c0-1.494.687-2.384,2-2.384,1.209,0,1.791.854,1.791,2.384V22.98h3.274V16.251c0-2.847-1.614-4.223-3.866-4.223a3.707,3.707,0,0,0-3.2,1.756V12.352h-3.156V22.98h3.156Z" transform="translate(-233.787)" fill="#767676"/>
</svg>
