<svg width="97" height="97" viewBox="0 0 97 97" fill="none" xmlns="http://www.w3.org/2000/svg">
<g clip-path="url(#clip0_2_31)">
<path d="M48.725 0.156998C22.2142 0.156998 0.723022 21.6521 0.723022 48.1589C0.723022 74.6697 22.2142 96.157 48.725 96.157C75.2357 96.157 96.723 74.6697 96.723 48.1589C96.723 21.6521 75.2337 0.156998 48.725 0.156998ZM72.9043 38.4806C72.9296 38.9991 72.9394 39.5196 72.9394 40.0459C72.9394 56.0322 60.7718 74.463 38.5222 74.463C31.6918 74.463 25.3312 72.4611 19.9784 69.0303C20.9258 69.1414 21.8868 69.1979 22.8634 69.1979C28.532 69.1979 33.7484 67.2642 37.8868 64.0205C32.5944 63.9211 28.1285 60.4221 26.5885 55.617C27.3254 55.7613 28.0836 55.8334 28.8634 55.8334C29.9667 55.8334 31.0349 55.6892 32.0505 55.4104C26.5144 54.2993 22.3449 49.4065 22.3449 43.5508C22.3449 43.4981 22.3449 43.4474 22.3468 43.3948C23.9764 44.3012 25.8419 44.8451 27.8263 44.9094C24.5788 42.7359 22.4443 39.0381 22.4443 34.8393C22.4443 32.6229 23.0408 30.543 24.0817 28.7574C30.0486 36.0751 38.9628 40.8919 49.0174 41.3948C48.8107 40.5118 48.7035 39.5859 48.7035 38.6385C48.7035 31.9601 54.1187 26.543 60.801 26.543C64.2805 26.543 67.4228 28.0128 69.6295 30.3617C72.3858 29.8217 74.9745 28.812 77.3117 27.426C76.4053 30.2525 74.4891 32.6229 71.9901 34.118C74.4404 33.8256 76.7718 33.1745 78.9394 32.2135C77.3215 34.6443 75.2688 36.7749 72.9043 38.4806Z" fill="#767676"/>
</g>
<defs>
<clipPath id="clip0_2_31">
<rect width="97" height="97" fill="white"/>
</clipPath>
</defs>
</svg>
