<svg xmlns="http://www.w3.org/2000/svg" width="26" height="26" viewBox="0 0 26 26">
  <g id="ic_inbound_call" transform="translate(-24 -798)">
    <rect id="Rectangle_17862" data-name="Rectangle 17862" width="26" height="26" transform="translate(24 798)" fill="none"/>
    <g id="Group_1804" data-name="Group 1804" transform="translate(0.5 0.5)">
      <path id="telephone-outbound" d="M3.763,1.367A.7.7,0,0,0,2.717,1.3L1.653,2.368a1.767,1.767,0,0,0-.463,1.823A18.09,18.09,0,0,0,5.481,11a18.091,18.091,0,0,0,6.8,4.292,1.767,1.767,0,0,0,1.823-.463l1.065-1.065a.7.7,0,0,0-.065-1.045l-2.376-1.847a.7.7,0,0,0-.6-.126L9.88,11.3a1.8,1.8,0,0,1-1.706-.473L5.645,8.3A1.8,1.8,0,0,1,5.171,6.6L5.736,4.34a.7.7,0,0,0-.126-.6ZM1.94.526A1.8,1.8,0,0,1,4.63.694L6.477,3.069A1.8,1.8,0,0,1,6.8,4.607L6.238,6.862a.7.7,0,0,0,.183.662l2.53,2.53a.7.7,0,0,0,.663.183l2.254-.563A1.8,1.8,0,0,1,13.407,10l2.375,1.847a1.8,1.8,0,0,1,.168,2.689L14.885,15.6a2.859,2.859,0,0,1-2.962.723A19.188,19.188,0,0,1,4.7,11.771,19.188,19.188,0,0,1,.152,4.553,2.862,2.862,0,0,1,.876,1.591L1.941.526Z" transform="translate(28.5 802.5)" stroke="#000" stroke-width="0.3"/>
      <path id="telephone-outbound-2" data-name="telephone-outbound" d="M10.3,1.545a.515.515,0,0,1,.515-.515h4.119a.515.515,0,0,1,.515.515V5.663a.515.515,0,1,1-1.03,0V2.787l-4.269,4.27a.516.516,0,0,1-.729-.729l4.27-4.269H10.812A.515.515,0,0,1,10.3,1.545Z" transform="translate(53.945 810.709) rotate(180)" stroke="#000" stroke-width="0.3"/>
    </g>
  </g>
</svg>
