<svg width="96" height="96" viewBox="0 0 96 96" fill="none" xmlns="http://www.w3.org/2000/svg">
<g clip-path="url(#clip0_1_20)">
<path d="M5.11592 33.3579H23.9754V90.1121H5.11592V33.3579ZM14.6719 6C8.21709 6 4 10.2376 4 15.7996C4 21.2473 8.09368 25.6081 14.4251 25.6081H14.5453C21.1235 25.6081 25.2202 21.247 25.2202 15.7996C25.0967 10.2376 21.1238 6 14.6719 6ZM70.2806 32.0247C60.2697 32.0247 55.7849 37.531 53.2829 41.3926V33.3579H34.4178C34.6676 38.6822 34.4178 90.1121 34.4178 90.1121H53.2829V58.4166C53.2829 56.719 53.4063 55.0277 53.9027 53.8117C55.2686 50.4228 58.3725 46.9135 63.5789 46.9135C70.4098 46.9135 73.1378 52.1204 73.1378 59.7464V90.1119H92V57.568C92 40.1358 82.6967 32.0247 70.2806 32.0247Z" fill="white"/>
</g>
<defs>
<clipPath id="clip0_1_20">
<rect width="96" height="96" fill="white"/>
</clipPath>
</defs>
</svg>
