<?xml version="1.0" ?><svg viewBox="0 0 81.99 98.27" xmlns="http://www.w3.org/2000/svg">
  <title />
  <g data-name="Layer 2" id="Layer_2">
    <g data-name="Layer 1" id="Layer_1-2">
      <path
        stroke="#ffffff"
        fill="#ffffff"
        d="M40.37,47.34A22.9,22.9,0,0,0,57.11,40.4,22.9,22.9,0,0,0,64,23.67,22.91,22.91,0,0,0,57.11,6.93,22.91,22.91,0,0,0,40.37,0,22.9,22.9,0,0,0,23.64,6.93,22.9,22.9,0,0,0,16.7,23.67,22.9,22.9,0,0,0,23.64,40.4,22.91,22.91,0,0,0,40.37,47.34Z" />
      <path
        stroke="#ffffff"
        fill="#ffffff"
        d="M81.79,75.57a58.46,58.46,0,0,0-.8-6.21,48.92,48.92,0,0,0-1.53-6.24,30.84,30.84,0,0,0-2.57-5.82,22,22,0,0,0-3.87-5,17.06,17.06,0,0,0-5.56-3.49,19.21,19.21,0,0,0-7.1-1.28c-1,0-2,.41-3.85,1.63l-4,2.58A23,23,0,0,1,47.33,54a20.14,20.14,0,0,1-12.68,0,22.91,22.91,0,0,1-5.18-2.28l-4-2.59c-1.87-1.22-2.84-1.63-3.85-1.63a19.19,19.19,0,0,0-7.1,1.29A17,17,0,0,0,9,52.25a22,22,0,0,0-3.87,5,30.9,30.9,0,0,0-2.57,5.82A49,49,0,0,0,1,69.36a58.26,58.26,0,0,0-.8,6.21C.07,77.45,0,79.4,0,81.37c0,5.13,1.63,9.28,4.85,12.35s7.38,4.56,12.49,4.56H64.65c5.11,0,9.31-1.53,12.49-4.56S82,86.5,82,81.37C82,79.39,81.92,77.44,81.79,75.57Z" />
    </g>
  </g>
</svg>
