<svg width="96" height="96" viewBox="0 0 96 96" fill="none" xmlns="http://www.w3.org/2000/svg">
<g clip-path="url(#clip0_1_4)">
<path d="M22.4886 59.6091C22.4886 64.6971 18.3323 68.8534 13.2443 68.8534C8.15645 68.8534 4 64.6971 4 59.6091C4 54.5213 8.15645 50.3648 13.2443 50.3648H22.4886V59.6091Z" fill="white"/>
<path d="M27.1466 59.6091C27.1466 54.5213 31.3031 50.3648 36.3909 50.3648C41.4789 50.3648 45.6352 54.5213 45.6352 59.6091V82.7557C45.6352 87.8437 41.4789 92 36.3909 92C31.3031 92 27.1466 87.8437 27.1466 82.7557V59.6091Z" fill="white"/>
<path d="M36.3909 22.4886C31.3031 22.4886 27.1466 18.3323 27.1466 13.2443C27.1466 8.15645 31.3031 4 36.3909 4C41.4789 4 45.6352 8.15645 45.6352 13.2443V22.4886H36.3909Z" fill="white"/>
<path d="M36.3909 27.1466C41.4789 27.1466 45.6352 31.303 45.6352 36.3909C45.6352 41.4789 41.4789 45.6352 36.3909 45.6352H13.2443C8.15645 45.6352 4 41.4789 4 36.3909C4 31.303 8.15645 27.1466 13.2443 27.1466H36.3909Z" fill="white"/>
<path d="M73.5114 36.3909C73.5114 31.303 77.6678 27.1466 82.7556 27.1466C87.8437 27.1466 91.9999 31.303 91.9999 36.3909C91.9999 41.4789 87.8437 45.6352 82.7556 45.6352H73.5114V36.3909Z" fill="white"/>
<path d="M68.8533 36.3909C68.8533 41.4789 64.6971 45.6352 59.609 45.6352C54.5212 45.6352 50.3647 41.4789 50.3647 36.3909V13.2443C50.3647 8.15645 54.5212 4 59.609 4C64.6971 4 68.8533 8.15645 68.8533 13.2443V36.3909Z" fill="white"/>
<path d="M59.6092 73.5114C64.6972 73.5114 68.8535 77.6679 68.8535 82.7557C68.8535 87.8437 64.6972 92 59.6092 92C54.5213 92 50.3649 87.8437 50.3649 82.7557V73.5114H59.6092Z" fill="white"/>
<path d="M59.6092 68.8534C54.5213 68.8534 50.3649 64.6971 50.3649 59.6091C50.3649 54.5213 54.5213 50.3648 59.6092 50.3648H82.7557C87.8438 50.3648 92 54.5213 92 59.6091C92 64.6971 87.8438 68.8534 82.7557 68.8534H59.6092Z" fill="white"/>
</g>
<defs>
<clipPath id="clip0_1_4">
<rect width="96" height="96" fill="white"/>
</clipPath>
</defs>
</svg>
