<svg width="96" height="96" viewBox="0 0 96 96" fill="none" xmlns="http://www.w3.org/2000/svg">
<g clip-path="url(#clip0_1_18)">
<path d="M92 20.4654C88.765 21.9034 85.2834 22.8734 81.6303 23.3075C85.3602 21.0746 88.2201 17.5376 89.5688 13.3183C86.0801 15.3887 82.218 16.891 78.1041 17.702C74.8119 14.1936 70.1192 12 64.9264 12C54.9569 12 46.8737 20.0831 46.8737 30.0544C46.8737 31.4674 47.0327 32.8447 47.3417 34.1684C32.3366 33.4145 19.032 26.2281 10.1271 15.3047C8.57301 17.9699 7.68341 21.071 7.68341 24.3828C7.68341 30.6457 10.8702 36.1726 15.7148 39.4095C12.7566 39.3148 9.9717 38.502 7.53693 37.1497C7.53515 37.2248 7.53515 37.3016 7.53515 37.3784C7.53515 46.1243 13.7587 53.4196 22.0187 55.0809C20.5039 55.4918 18.9087 55.7133 17.2617 55.7133C16.097 55.7133 14.9663 55.6008 13.8641 55.3882C16.1631 62.5603 22.8297 67.7817 30.7289 67.9264C24.5499 72.7692 16.7669 75.6559 8.30684 75.6559C6.85098 75.6559 5.41299 75.5701 4 75.4022C11.992 80.5272 21.481 83.514 31.6756 83.514C64.8853 83.514 83.0433 56.0045 83.0433 32.1462C83.0433 31.3638 83.0273 30.5832 82.9933 29.8079C86.5195 27.2678 89.5813 24.0863 92 20.4654Z" fill="white"/>
</g>
<defs>
<clipPath id="clip0_1_18">
<rect width="96" height="96" fill="white"/>
</clipPath>
</defs>
</svg>
