<svg id="Component_34_5" data-name="Component 34 – 5" xmlns="http://www.w3.org/2000/svg" xmlns:xlink="http://www.w3.org/1999/xlink" width="32.581" height="31.018" viewBox="0 0 32.581 31.018">
  <defs>
    <clipPath id="clip-path">
      <rect id="Rectangle_17478" data-name="Rectangle 17478" width="32.581" height="31.018" fill="none"/>
    </clipPath>
  </defs>
  <path id="Path_40754" data-name="Path 40754" d="M1,14.975V30.019H31.581V14.975l-4.76-2.385.025,5.215L16.295,24.789,6.062,18.142l-.006-5.7Z" transform="translate(0 0)" fill="#c7c9cb"/>
  <g id="Group_481" data-name="Group 481">
    <g id="Group_480" data-name="Group 480" clip-path="url(#clip-path)">
      <path id="Path_40755" data-name="Path 40755" d="M32.566,14.857c0-.028-.005-.055-.011-.082a1,1,0,0,0-.123-.319c0-.006,0-.014-.008-.021s-.023-.02-.033-.033a.986.986,0,0,0-.21-.218c-.019-.014-.035-.031-.055-.044s-.017-.015-.026-.021l-4.351-2.638V1a1,1,0,0,0-1-1H5.833a1,1,0,0,0-1,1V11.482L.481,14.119a.275.275,0,0,0-.026.022c-.02.013-.036.029-.055.043a1,1,0,0,0-.212.22c-.009.012-.022.019-.031.032s0,.013-.008.02a1,1,0,0,0-.123.32c-.006.027-.007.053-.011.08A1.189,1.189,0,0,0,0,14.974V30.018a.965.965,0,0,0,.026.13.906.906,0,0,0,.023.113.981.981,0,0,0,.106.259.389.389,0,0,0,.021.051.691.691,0,0,0,.061.071.98.98,0,0,0,.094.109,1.029,1.029,0,0,0,.243.164.818.818,0,0,0,.1.036.992.992,0,0,0,.313.064l.015,0H31.582a1,1,0,0,0,.346-.069c.023-.009.046-.016.068-.026a1.007,1.007,0,0,0,.275-.185c.016-.016.028-.033.043-.05a.937.937,0,0,0,.1-.116.777.777,0,0,0,.034-.084.877.877,0,0,0,.075-.184.9.9,0,0,0,.04-.2.838.838,0,0,0,.018-.087V14.974a1.134,1.134,0,0,0-.015-.117M29.69,15l-1.941,1.242V13.82ZM6.833,2H25.749V17.464l-9.454,6.1-9.462-6.1Zm-2,11.821v2.417L2.892,15ZM30.581,28.152,24.487,24.1a1,1,0,0,0-1.107,1.665l4.892,3.254H4.318L9.21,25.764A1,1,0,1,0,8.1,24.1L2,28.158V16.8l13.756,8.8a1.007,1.007,0,0,0,.157.071c.035.014.067.036.1.047a.993.993,0,0,0,.558,0c.025-.008.048-.024.073-.033a.952.952,0,0,0,.187-.085l13.747-8.8Z" transform="translate(0 0)" fill="#050605"/>
      <path id="Path_40756" data-name="Path 40756" d="M16.749,5.836,17.774,8.99a.484.484,0,0,0,.459.333H21.55a.482.482,0,0,1,.283.872L19.15,12.144a.482.482,0,0,0-.175.539L20,15.836a.483.483,0,0,1-.742.54l-2.684-1.95a.485.485,0,0,0-.567,0l-2.684,1.95a.482.482,0,0,1-.742-.54l1.025-3.153a.482.482,0,0,0-.176-.539l-2.683-1.949a.482.482,0,0,1,.284-.872h3.317a.482.482,0,0,0,.458-.333l1.026-3.154a.482.482,0,0,1,.917,0" transform="translate(0 0)" fill="#050605"/>
    </g>
  </g>
</svg>
