<svg id="noun-notification-1233197" xmlns="http://www.w3.org/2000/svg" width="27.524" height="32.411" viewBox="0 0 27.524 32.411">
  <path id="noun-notification-1233197-2" data-name="noun-notification-1233197" d="M14.371,32.306h5.765a5.181,5.181,0,0,0,10.341,0h5.765a2.827,2.827,0,0,0,2.1-4.716l-2.537-2.827V19.592a10.52,10.52,0,0,0-6.527-9.708V8.836a4.047,4.047,0,0,0-3.7-4.083A3.936,3.936,0,0,0,22.59,5.826a3.99,3.99,0,0,0-1.263,2.906V9.9a10.528,10.528,0,0,0-6.52,9.7v5.16L12.27,27.586a2.827,2.827,0,0,0,2.1,4.716Zm10.936,3.4a3.761,3.761,0,0,1-3.739-3.4h7.479A3.761,3.761,0,0,1,25.306,35.7ZM13.333,28.545l2.72-3.031a.716.716,0,0,0,.182-.48V19.6a9.093,9.093,0,0,1,6.047-8.545.716.716,0,0,0,.476-.673V8.721a2.548,2.548,0,0,1,2.548-2.548h.175a2.612,2.612,0,0,1,2.369,2.655v1.542a.716.716,0,0,0,.476.673,9.085,9.085,0,0,1,6.047,8.538v4.738H27.167a.716.716,0,0,0,0,1.431h7.6l2.5,2.795a1.4,1.4,0,0,1-1.038,2.33H14.371a1.4,1.4,0,0,1-1.038-2.33Z" transform="translate(-11.546 -4.743)"/>
</svg>
